<svg xmlns="http://www.w3.org/2000/svg" viewBox="0 0 2048 1996"><defs><style>.cls-1{fill:#fff;}</style></defs><title>Prancheta 3-svg</title><g id="Camada_2" data-name="Camada 2"><path d="M58.9,993.8C60,459.67,491.88,30.7,1027,32.15c533,1.44,962.59,434.66,961.05,969.28-1.54,532.17-435.5,961.3-970.64,959.84C486.57,1959.81,57.76,1527,58.9,993.8ZM1567.78,1005h6c0-95.55-.89-191.11.61-286.63.39-24.59-7.93-37.74-28.83-50q-243.88-142.71-486.27-288c-20.71-12.4-36.38-13.51-57.92-1.21Q756,519.31,509.08,656.64c-22.56,12.54-31.81,26.61-31.89,52.75q-.92,284.65-4.86,569.3c-.32,23.47,8.69,35.42,27.94,46.67,163.8,95.71,326.77,192.84,491,287.83,12.8,7.41,36.64,8.41,49.29,1.43,167.25-92.34,333.23-186.94,500.05-280.07,19.88-11.1,27.92-24,27.65-46.9C1567.14,1193.44,1567.78,1099.22,1567.78,1005Z"/><path class="cls-1" d="M1567.78,1005c0,94.22-.64,188.44.45,282.65.27,22.89-7.77,35.8-27.65,46.9-166.82,93.13-332.8,187.73-500,280.07-12.65,7-36.49,6-49.29-1.43-164.2-95-327.17-192.12-491-287.83-19.25-11.25-28.26-23.2-27.94-46.67q3.84-284.64,4.86-569.3c.08-26.14,9.33-40.21,31.89-52.75Q756,519.32,1001.39,379.22c21.54-12.3,37.21-11.19,57.92,1.21q242.43,145.17,486.27,288c20.9,12.23,29.22,25.38,28.83,50-1.5,95.52-.61,191.08-.61,286.63ZM945.62,1307.52c8.79-2.54,12.59-3.71,16.43-4.73,88.28-23.5,176.89-45.84,264.49-71.65,13.75-4.06,28.89-22.13,33.13-36.7,24-82.63,44.14-166.39,67.35-249.26,6.09-21.75,3.49-36.31-13.13-52.6-62.5-61.21-122.64-124.83-185.68-185.45-10.65-10.24-32.9-17-47-13.67Q951.76,724.29,824,761.82c-14.1,4.13-30.72,20.35-34.87,34.33-25.22,85.06-48.1,170.86-69.26,257-3.32,13.5,1.16,34.86,10.43,44.55,63.23,66.06,128.59,130.08,193.61,194.41C930.84,1299,940.06,1303.65,945.62,1307.52Zm392.75-411.44c13.19-47.76,23.13-87.28,35.22-126.14,7.12-22.92,2.22-38.67-15.19-55.91-103.59-102.65-205.88-206.61-308.75-310-7.19-7.23-15.5-13.35-24.09-20.67L574.63,638c12.82,6.31,21.75,4.76,30.48,2.46,110.07-29,220.49-56.76,329.94-88,34.46-9.82,57.1-5.38,83,21.38C1121.1,680.6,1227,784.57,1338.37,896.08ZM1113,432.22l-6.34,6.08c8.82,9.49,17.4,19.22,26.52,28.42,80.35,81.12,160.1,162.85,241.72,242.67,18.94,18.53,22.2,34.79,15.42,59.26-36.78,132.9-72.1,266.21-107.76,399.42-4.21,15.72-7.44,31.7-12.26,52.44,49.86-13,92.55-22.58,134-36,11.17-3.62,23.59-17.53,26.88-29.13q61.74-218.29,119.92-437.58c2.44-9.18-3.37-26.91-10.9-31.45C1398.27,600.8,1255.54,516.66,1113,432.22ZM777.07,774.94c-48.34,12.6-87.72,24.28-127.77,32.78-22.86,4.85-32.06,17.23-37.73,38.66-37,139.82-74.41,279.54-113.54,418.77-7.42,26.42-3.15,39.72,21.29,53.86,135.54,78.41,269.93,158.81,404.78,238.41,5.59,3.3,11.94,5.33,17.93,7.95l8.25-10.51c-74.42-71.73-144.87-148.31-224.49-213.73-68.68-56.44-78.59-112.39-50.15-194.81C716.5,1027.9,742.55,904.36,777.07,774.94ZM707.17,1097c-12.92,48-22.51,89.25-35.42,129.4-7.19,22.37-1.61,36.51,14.46,52.32q112,110.23,222.1,222.5c36.16,36.67,71.07,74.56,106.51,111.86l458.64-258.88c-15.33-4.83-27.76-2.45-40,.78-108.87,28.81-218,56.71-326.34,87.35-31.76,9-52.59,4.2-76.37-20.28C926.45,1314.66,819.69,1209.6,707.17,1097ZM491.59,1199.35l7.49-.41c32.65-118.9,66-237.61,97.39-356.86,7.2-27.39,19.34-41.54,48-48.87,134.84-34.49,269-71.57,403.37-107.89,13.37-3.62,26.44-8.41,53.47-17.1-38.76-34.84-68.86-64.69-102.17-90.36-12.08-9.31-33.5-15.12-47.86-11.49-142.7,36.08-284.68,74.94-427.2,111.75-23.52,6.07-31.18,17-31.23,41-.28,149.93-2.09,299.85-3.22,449.78C489.57,1179,490.91,1189.19,491.59,1199.35ZM1551.8,779.93c-6.56,22.26-10.84,36-14.64,49.81-29.83,108.79-60.36,217.4-88.74,326.56-6.92,26.59-19.64,39.5-46.47,45.75-65.9,15.33-131.08,33.73-196.52,51-81.68,21.59-163.32,43.31-256.92,68.15,41.58,39.79,76.11,74,112.34,106.31,5.85,5.22,20,4.55,29.11,2.16,144.94-38,289.85-76.16,434.15-116.49,11.55-3.23,26.38-22.61,26.51-34.63C1552.38,1115.39,1551.8,952.18,1551.8,779.93Z"/><path d="M945.62,1307.52c-5.56-3.87-14.78-8.49-21.75-15.39-65-64.33-130.38-128.35-193.61-194.41-9.27-9.69-13.75-31-10.43-44.55,21.16-86.16,44-172,69.26-257,4.15-14,20.77-30.2,34.87-34.33q127.71-37.43,257.25-68.36c14.1-3.35,36.35,3.43,47,13.67,63,60.62,123.18,124.24,185.68,185.45,16.62,16.29,19.22,30.85,13.13,52.6-23.21,82.87-43.34,166.63-67.35,249.26-4.24,14.57-19.38,32.64-33.13,36.7-87.6,25.81-176.21,48.15-264.49,71.65C958.21,1303.81,954.41,1305,945.62,1307.52Z"/><path d="M1338.37,896.08C1227,784.57,1121.1,680.6,1018,573.93c-25.86-26.76-48.5-31.2-83-21.38-109.45,31.19-219.87,59-329.94,88-8.73,2.3-17.66,3.85-30.48-2.46l450.93-254.67c8.59,7.32,16.9,13.44,24.09,20.67,102.87,103.38,205.16,207.34,308.75,310,17.41,17.24,22.31,33,15.19,55.91C1361.5,808.8,1351.56,848.32,1338.37,896.08Z"/><path d="M1113,432.22c142.56,84.44,285.29,168.58,427.19,254.12,7.53,4.54,13.34,22.27,10.9,31.45Q1492.81,937,1431.15,1155.37c-3.29,11.6-15.71,25.51-26.88,29.13-41.44,13.43-84.13,23-134,36,4.82-20.74,8-36.72,12.26-52.44,35.66-133.21,71-266.52,107.76-399.42,6.78-24.47,3.52-40.73-15.42-59.26-81.62-79.82-161.37-161.55-241.72-242.67-9.12-9.2-17.7-18.93-26.52-28.42Z"/><path d="M777.07,774.94c-34.52,129.42-60.57,253-101.43,371.38-28.44,82.42-18.53,138.37,50.15,194.81,79.62,65.42,150.07,142,224.49,213.73L942,1565.37c-6-2.62-12.34-4.65-17.93-7.95-134.85-79.6-269.24-160-404.78-238.41-24.44-14.14-28.71-27.44-21.29-53.86,39.13-139.23,76.54-279,113.54-418.77,5.67-21.43,14.87-33.81,37.73-38.66C689.35,799.22,728.73,787.54,777.07,774.94Z"/><path d="M707.17,1097c112.52,112.56,219.28,217.62,323.61,325,23.78,24.48,44.61,29.26,76.37,20.28,108.35-30.64,217.47-58.54,326.34-87.35,12.21-3.23,24.64-5.61,40-.78l-458.64,258.88c-35.44-37.3-70.35-75.19-106.51-111.86Q798,1389.32,686.21,1278.76c-16.07-15.81-21.65-30-14.46-52.32C684.66,1186.29,694.25,1145.06,707.17,1097Z"/><path d="M491.59,1199.35c-.68-10.16-2-20.32-1.94-30.48,1.13-149.93,2.94-299.85,3.22-449.78.05-24,7.71-34.9,31.23-41,142.52-36.81,284.5-75.67,427.2-111.75,14.36-3.63,35.78,2.18,47.86,11.49,33.31,25.67,63.41,55.52,102.17,90.36-27,8.69-40.1,13.48-53.47,17.1-134.36,36.32-268.53,73.4-403.37,107.89-28.68,7.33-40.82,21.48-48,48.87-31.36,119.25-64.74,238-97.39,356.86Z"/><path d="M1551.8,779.93c0,172.25.58,335.46-1.18,498.64-.13,12-15,31.4-26.51,34.63-144.3,40.33-289.21,78.47-434.15,116.49-9.13,2.39-23.26,3.06-29.11-2.16-36.23-32.3-70.76-66.52-112.34-106.31,93.6-24.84,175.24-46.56,256.92-68.15,65.44-17.29,130.62-35.69,196.52-51,26.83-6.25,39.55-19.16,46.47-45.75,28.38-109.16,58.91-217.77,88.74-326.56C1541,815.9,1545.24,802.19,1551.8,779.93Z"/></g></svg>