<svg xmlns="http://www.w3.org/2000/svg" viewBox="0 0 2048 2048"><defs><style>.cls-1{fill:#fff;}</style></defs><title>Prancheta 1-svg</title><g id="Camada_2" data-name="Camada 2"><path d="M511.48,726.63c.61-285.73,231.62-515.2,517.88-514.43,285.14.77,514.92,232.52,514.09,518.51-.82,284.68-233,514.24-519.23,513.45C740.26,1243.39,510.87,1011.85,511.48,726.63Zm807.16,6h3.22c0-51.11-.47-102.23.33-153.33.21-13.16-4.24-20.19-15.42-26.73q-130.47-76.35-260.13-154c-11.07-6.63-19.46-7.22-31-.64Q884.4,472.79,752.3,546.27c-12.06,6.71-17,14.23-17.06,28.21q-.48,152.28-2.6,304.55c-.17,12.55,4.65,19,15,25,87.62,51.2,174.8,103.16,262.64,154,6.84,4,19.6,4.49,26.37.76,89.46-49.4,178.26-100,267.49-149.82,10.64-5.94,14.94-12.84,14.79-25.09C1318.3,833.43,1318.64,783,1318.64,732.62Z"/><path class="cls-1" d="M1318.64,732.62c0,50.4-.34,100.81.24,151.2.15,12.25-4.15,19.15-14.79,25.09-89.23,49.82-178,100.42-267.49,149.82-6.77,3.73-19.53,3.2-26.37-.76-87.84-50.82-175-102.78-262.64-154-10.3-6-15.12-12.41-15-25q2.05-152.26,2.6-304.55c0-14,5-21.5,17.06-28.21q132.09-73.45,263.36-148.4c11.52-6.58,19.91-6,31,.64q129.69,77.65,260.13,154c11.18,6.54,15.63,13.57,15.42,26.73-.8,51.1-.33,102.22-.33,153.33ZM985.82,894.45c4.71-1.36,6.74-2,8.79-2.53,47.23-12.57,94.63-24.52,141.49-38.33,7.36-2.17,15.46-11.84,17.72-19.63,12.84-44.21,23.62-89,36-133.34,3.26-11.63,1.87-19.43-7-28.14-33.42-32.74-65.6-66.77-99.32-99.2-5.7-5.48-17.6-9.11-25.14-7.31q-69.25,16.49-137.62,36.56c-7.54,2.21-16.43,10.89-18.65,18.37C888.6,666.4,876.36,712.3,865,758.39c-1.78,7.22.62,18.65,5.58,23.83,33.82,35.34,68.79,69.59,103.57,104C977.92,889.91,982.85,892.38,985.82,894.45Zm210.1-220.1c7.06-25.54,12.38-46.69,18.84-67.47,3.81-12.26,1.19-20.69-8.12-29.91-55.42-54.91-110.14-110.52-165.17-165.83-3.84-3.86-8.28-7.14-12.88-11.05L787.37,536.32c6.86,3.37,11.63,2.55,16.3,1.32,58.88-15.51,118-30.37,176.5-47.05,18.44-5.26,30.55-2.88,44.38,11.43C1079.7,559.09,1136.34,614.7,1195.92,674.35ZM1075.35,426.22l-3.39,3.25c4.72,5.08,9.31,10.28,14.19,15.21,43,43.39,85.64,87.11,129.3,129.81,10.14,9.91,11.88,18.61,8.25,31.7-19.67,71.09-38.57,142.4-57.65,213.66-2.25,8.41-4,17-6.55,28.06,26.67-7,49.51-12.08,71.68-19.27,6-1.93,12.61-9.37,14.37-15.58q33-116.77,64.16-234.08c1.3-4.91-1.81-14.4-5.84-16.82C1228,516.4,1151.61,471.39,1075.35,426.22ZM895.66,609.55c-25.86,6.74-46.92,13-68.35,17.54-12.23,2.59-17.15,9.21-20.18,20.68-19.79,74.79-39.8,149.53-60.74,224-4,14.14-1.69,21.25,11.39,28.81,72.5,41.95,144.39,85,216.53,127.54,3,1.76,6.39,2.85,9.59,4.25,1.47-1.87,3-3.74,4.42-5.62-39.82-38.37-77.5-79.33-120.09-114.33-36.74-30.19-42-60.13-26.83-104.21C863.26,744.87,877.19,678.78,895.66,609.55ZM858.27,781.86c-6.91,25.68-12,47.74-18.95,69.22-3.85,12-.86,19.53,7.74,28q59.94,59,118.81,119c19.34,19.61,38,39.88,57,59.84l245.35-138.49c-8.2-2.58-14.86-1.31-21.39.42-58.23,15.41-116.61,30.33-174.57,46.72-17,4.81-28.13,2.25-40.85-10.84C975.57,898.27,918.46,842.07,858.27,781.86ZM742.94,836.58l4-.21c17.47-63.61,35.33-127.11,52.1-190.9,3.85-14.65,10.35-22.22,25.69-26.15,72.13-18.45,143.9-38.28,215.77-57.71,7.16-1.94,14.15-4.5,28.61-9.15-20.73-18.63-36.83-34.6-54.66-48.34-6.46-5-17.91-8.08-25.6-6.14-76.33,19.3-152.28,40.09-228.52,59.78-12.59,3.25-16.68,9.08-16.71,21.91-.15,80.21-1.12,160.41-1.72,240.61C741.87,825.71,742.58,831.15,742.94,836.58ZM1310.1,612.22c-3.51,11.91-5.81,19.24-7.84,26.65-16,58.19-32.29,116.29-47.47,174.69-3.7,14.22-10.5,21.13-24.86,24.47-35.25,8.2-70.12,18-105.12,27.29-43.7,11.55-87.37,23.17-137.44,36.46,22.24,21.28,40.71,39.59,60.09,56.87,3.13,2.79,10.69,2.43,15.58,1.15,77.53-20.34,155-40.74,232.24-62.31,6.18-1.73,14.12-12.1,14.19-18.52C1310.4,791.67,1310.1,704.37,1310.1,612.22Z"/><path d="M985.82,894.45c-3-2.07-7.9-4.54-11.63-8.23-34.78-34.41-69.75-68.66-103.57-104-5-5.18-7.36-16.61-5.58-23.83,11.32-46.09,23.56-92,37.05-137.49,2.22-7.48,11.11-16.16,18.65-18.37q68.32-20,137.62-36.56c7.54-1.8,19.44,1.83,25.14,7.31,33.72,32.43,65.9,66.46,99.32,99.2,8.9,8.71,10.29,16.51,7,28.14-12.41,44.33-23.19,89.13-36,133.34-2.26,7.79-10.36,17.46-17.72,19.63-46.86,13.81-94.26,25.76-141.49,38.33C992.56,892.47,990.53,893.09,985.82,894.45Z"/><path d="M1195.92,674.35C1136.34,614.7,1079.7,559.09,1024.55,502c-13.83-14.31-25.94-16.69-44.38-11.43-58.55,16.68-117.62,31.54-176.5,47.05-4.67,1.23-9.44,2.05-16.3-1.32l241.22-136.23c4.6,3.91,9,7.19,12.88,11.05,55,55.31,109.75,110.92,165.17,165.83,9.31,9.22,11.93,17.65,8.12,29.91C1208.3,627.66,1203,648.81,1195.92,674.35Z"/><path d="M1075.35,426.22c76.26,45.17,152.62,90.18,228.52,135.94,4,2.42,7.14,11.91,5.84,16.82q-31.18,117.28-64.16,234.08c-1.76,6.21-8.4,13.65-14.37,15.58-22.17,7.19-45,12.3-71.68,19.27,2.58-11.1,4.3-19.65,6.55-28.06,19.08-71.26,38-142.57,57.65-213.66,3.63-13.09,1.89-21.79-8.25-31.7-43.66-42.7-86.32-86.42-129.3-129.81-4.88-4.93-9.47-10.13-14.19-15.21Z"/><path d="M895.66,609.55c-18.47,69.23-32.4,135.32-54.26,198.67-15.21,44.08-9.91,74,26.83,104.21,42.59,35,80.27,76,120.09,114.33-1.47,1.88-3,3.75-4.42,5.62-3.2-1.4-6.59-2.49-9.59-4.25-72.14-42.58-144-85.59-216.53-127.54-13.08-7.56-15.36-14.67-11.39-28.81,20.94-74.48,41-149.22,60.74-224,3-11.47,8-18.09,20.18-20.68C848.74,622.54,869.8,616.29,895.66,609.55Z"/><path d="M858.27,781.86c60.19,60.21,117.3,116.41,173.11,173.88,12.72,13.09,23.86,15.65,40.85,10.84,58-16.39,116.34-31.31,174.57-46.72,6.53-1.73,13.19-3,21.39-.42l-245.35,138.49c-19-20-37.63-40.23-57-59.84q-59-59.88-118.81-119c-8.6-8.45-11.59-16-7.74-28C846.23,829.6,851.36,807.54,858.27,781.86Z"/><path d="M742.94,836.58c-.36-5.43-1.07-10.87-1-16.3.6-80.2,1.57-160.4,1.72-240.61,0-12.83,4.12-18.66,16.71-21.91,76.24-19.69,152.19-40.48,228.52-59.78,7.69-1.94,19.14,1.17,25.6,6.14,17.83,13.74,33.93,29.71,54.66,48.34-14.46,4.65-21.45,7.21-28.61,9.15C968.64,581,896.87,600.87,824.74,619.32c-15.34,3.93-21.84,11.5-25.69,26.15-16.77,63.79-34.63,127.29-52.1,190.9Z"/><path d="M1310.1,612.22c0,92.15.3,179.45-.63,266.75-.07,6.42-8,16.79-14.19,18.52-77.19,21.57-154.71,42-232.24,62.31-4.89,1.28-12.45,1.64-15.58-1.15-19.38-17.28-37.85-35.59-60.09-56.87,50.07-13.29,93.74-24.91,137.44-36.46,35-9.25,69.87-19.09,105.12-27.29,14.36-3.34,21.16-10.25,24.86-24.47,15.18-58.4,31.52-116.5,47.47-174.69C1304.29,631.46,1306.59,624.13,1310.1,612.22Z"/><path d="M253,1803.2a27.65,27.65,0,0,1-6.34-1.27c-9.5-51.31-10.77-104.52-8.23-157.09,1.26-32.94,5.7-109.59-4.44-142.53-48.14-3.17-117.19,25.34-166.59,35.47-3.81.64-5.71,1.9-9.51,1.27-10.13-.63-20.27-8.87-19.63-19.64.63-7,5.7-11.4,11.4-15.2,81.71-52.58,280.62-69,377.54-60.81,20.9,1.9,46.24,9.5,43.71,35.47-.64,5.7-5.71,8.24-10.77,8.87-33.58,3.8-140.63,4.44-176.1,13.3,0,24.71.63,53.21-1.9,77.92-5.7,70.31,7,140,1.26,210.3C277.7,1798.77,264.4,1803.83,253,1803.2Z"/><path d="M519,1504.21a103.1,103.1,0,0,0-.63-13.93c-5.7,4.43-12.67,6.33-20.27,6.33-12.67,0-24.07-7-23.44-20.9l.64-3.8c10.13-67.79,166-75.39,218.54-83.62,11.4-1.9,60.18-13.3,65.24-13.3,8.87,0,11.41,9.5,10.14,15.83-39.91,38-150.13,41.81-197.64,78.55-15.83,42.44-22.17,95.65-21.54,140.63v5.7c43.71-14.57,123.53-74.12,161.53-74.12,10.14,0,19.64,5.71,19.64,16.47,0,43.08-179.9,82.35-188.77,117.19,4.44,38,2.54,86.79,54.48,86.79,26.6,0,116.56-31,131.12-52.58,2.54-3.17,0-20.27,0-24.7,0-10.77,3.81-17.74,15.84-17.11,9.5,8.87,17.74,20.91,17.74,34.21,0,61.44-123.53,112.12-174.84,112.12-81.71,0-88.68-95.65-88.68-156.46C498.14,1605.56,519,1556.15,519,1504.21Z"/><path d="M852.87,1556.79c2.53,0,8.86,4.43,10.13,5.7,20.27,17.74,13.94,59.54,18.37,83.61,11.4-22.8,24.07-81.08,55.75-81.08,24.7,0,48.14,23.44,68.41,55.11,31.67,49.41,51.31,126.06,51.31,157.1,0,12.67-13.94,20.9-25.34,20.9-5.07,0-14.57-.63-17.1-5.06-13.31-23.44-20.91-60.82-31.68-96.29-7-23.44-21.53-62.71-36.74-67.78-30.4,8.87-59.54,92.49-48.77,149.5,4.43,26-3.17,48.14-15.2,48.14-13.31,0-22.81-12-30.41-31-21.54-56.38-22.17-172.93-22.17-205.24C829.43,1572.62,832,1556.79,852.87,1556.79Z"/><path d="M1102.45,1786.1c6.33,0,41.8,27.87,48.14,27.87,31,0,72.85-41.81,72.85-72.85,0-89.31-131.13-33.57-131.13-122.25,0-62.08,77.28-94.39,129.86-94.39h26.61c4.43,8.87,10.76,16.47,10.76,26.61,0,25.33-98.18,7.6-122.25,58.27,5.7,15.21,44.34,22.18,58.28,28.51,39.27,18.37,84.88,55.11,84.88,101.35,0,67.15-72.85,119.73-136.2,119.73-32.3,0-62.71-16.47-62.71-52C1081.54,1789.26,1086.61,1786.1,1102.45,1786.1Z"/><path d="M1331.12,1449.73c15.84,0,31,.64,31,20.91,0,15.83-5.07,20.9-20.27,20.9-11.4,0-31.67,0-31.67-15.83C1310.22,1461.14,1314.65,1449.73,1331.12,1449.73Zm7,136.83c0-4.43,0-12.67,3.8-16.47a49.54,49.54,0,0,1,10.14-1.27c53.84,0,51.31,121,51.94,156.47.63,15.83,1.9,31.67,1.9,46.87,0,12-8.23,26.61-20.9,26.61-10.14,0-18.37-7-22.81-14.57C1357.73,1721.49,1338.09,1645.47,1338.09,1586.56Z"/><path d="M1497.08,1556.79c2.53,0,8.87,4.43,10.13,5.7,20.27,17.74,13.94,59.54,18.37,83.61,11.41-22.8,24.08-81.08,55.75-81.08,24.7,0,48.14,23.44,68.41,55.11,31.67,49.41,51.31,126.06,51.31,157.1,0,12.67-13.94,20.9-25.34,20.9-5.07,0-14.57-.63-17.1-5.06-13.3-23.44-20.9-60.82-31.67-96.29-7-23.44-21.54-62.71-36.74-67.78-30.41,8.87-59.55,92.49-48.78,149.5,4.43,26-3.17,48.14-15.2,48.14-13.3,0-22.81-12-30.41-31-21.54-56.38-22.17-172.93-22.17-205.24C1473.64,1572.62,1476.17,1556.79,1497.08,1556.79Z"/><path d="M1836.61,1568.19c36.11,1.9,45.61,41.17,39.91,86.78a20.69,20.69,0,0,1,8.87-2.53c11.4.63,20.27,21.54,23.43,36.11,12,22.17,43.71,75.38,101.36,55.11-17.11,41.17-34.84,50-50,48.77-18.37.64-50.67-24.07-61.44-36.1L1882.22,1738c-8.87-3.17-50.68,67.14-86.78,67.14-38.65,0-65.25-43.71-65.25-110.22C1730.19,1629.63,1794.8,1565,1836.61,1568.19ZM1792.27,1757a12.43,12.43,0,0,0,4.43.63c24.71-3.17,65.25-64,66.51-100.08,1.27-21.54-13.3-39.91-27.87-45.61-36.1-1.27-60.17,58.28-62.08,100.08C1772.63,1727.19,1778.33,1749.36,1792.27,1757Z"/></g></svg>