<svg xmlns="http://www.w3.org/2000/svg" viewBox="0 0 2166.64 785.54"><defs><style>.cls-1{fill:#fff;}</style></defs><title>Prancheta 2-svg</title><g id="Camada_2" data-name="Camada 2"><path d="M93.33,404.6A231.1,231.1,0,0,1,325.78,173.7c128,.35,231.13,104.37,230.76,232.74C556.17,534.22,452,637.26,323.48,636.9,196,636.56,93.06,532.63,93.33,404.6Zm362.3,2.69h1.45c0-22.94-.21-45.88.15-68.82.09-5.91-1.91-9.06-6.93-12q-58.56-34.26-116.76-69.14c-5-3-8.73-3.25-13.9-.29q-58.92,33.63-118.21,66.61c-5.42,3-7.64,6.39-7.66,12.66q-.22,68.35-1.17,136.7c-.07,5.63,2.09,8.51,6.71,11.21,39.33,23,78.46,46.3,117.89,69.11,3.07,1.78,8.8,2,11.83.34,40.16-22.17,80-44.89,120.07-67.25,4.77-2.66,6.7-5.76,6.64-11.26C455.48,452.54,455.63,429.92,455.63,407.29Z"/><path class="cls-1" d="M455.63,407.29c0,22.63-.15,45.25.11,67.87.06,5.5-1.87,8.6-6.64,11.26C409.05,508.78,369.19,531.5,329,553.67c-3,1.68-8.76,1.44-11.83-.34-39.43-22.81-78.56-46.13-117.89-69.11-4.62-2.7-6.78-5.58-6.71-11.21q.93-68.34,1.17-136.7c0-6.27,2.24-9.65,7.66-12.66q59.28-33,118.21-66.61c5.17-3,8.93-2.69,13.9.29q58.21,34.85,116.76,69.14c5,2.94,7,6.09,6.93,12-.36,22.94-.15,45.88-.15,68.82ZM306.24,479.93c2.12-.61,3-.89,3.95-1.13,21.2-5.65,42.47-11,63.51-17.21,3.3-1,6.93-5.31,7.95-8.81,5.77-19.84,10.6-39.95,16.17-59.85,1.46-5.22.84-8.72-3.15-12.63-15-14.7-29.45-30-44.58-44.53-2.56-2.46-7.9-4.09-11.29-3.28Q307.72,339.89,277,348.9c-3.38,1-7.37,4.89-8.37,8.25-6.06,20.42-11.55,41-16.63,61.71-.8,3.24.28,8.37,2.51,10.7,15.18,15.86,30.87,31.23,46.48,46.68A35.13,35.13,0,0,0,306.24,479.93Zm94.31-98.79c3.17-11.47,5.55-21,8.45-30.29,1.72-5.5.54-9.28-3.64-13.42-24.88-24.65-49.44-49.61-74.14-74.44-1.72-1.73-3.72-3.2-5.78-5L217.17,319.18a9.25,9.25,0,0,0,7.31.59c26.43-7,53-13.63,79.23-21.11,8.27-2.36,13.71-1.3,19.92,5.13C348.38,329.4,373.8,354.37,400.55,381.14ZM346.43,269.76l-1.52,1.46c2.12,2.28,4.18,4.62,6.36,6.83,19.3,19.47,38.45,39.1,58,58.26,4.55,4.45,5.33,8.36,3.71,14.23-8.83,31.91-17.31,63.92-25.88,95.91-1,3.77-1.78,7.61-2.94,12.59,12-3.12,22.22-5.42,32.17-8.65,2.68-.86,5.67-4.2,6.46-7Q437.65,391,451.62,338.33c.59-2.2-.81-6.46-2.62-7.55C414.93,310.24,380.66,290,346.43,269.76Zm-80.66,82.29c-11.6,3-21.06,5.83-30.68,7.87-5.48,1.17-7.69,4.14-9.05,9.29-8.89,33.57-17.87,67.12-27.27,100.55-1.78,6.34-.75,9.54,5.11,12.93,32.55,18.83,64.82,38.13,97.2,57.25a37.64,37.64,0,0,0,4.3,1.9l2-2.52c-17.87-17.22-34.78-35.61-53.9-51.32-16.49-13.55-18.87-27-12-46.77C251.23,412.79,257.48,383.13,265.77,352.05ZM249,429.39c-3.1,11.53-5.4,21.43-8.5,31.08-1.73,5.37-.39,8.76,3.47,12.56q26.89,26.46,53.33,53.42c8.68,8.81,17.06,17.9,25.57,26.86L433,491.15c-3.69-1.16-6.67-.59-9.6.19-26.14,6.91-52.34,13.61-78.36,21-7.63,2.16-12.63,1-18.34-4.87C301.64,481.65,276,456.42,249,429.39ZM197.23,454l1.8-.1c7.83-28.55,15.85-57.05,23.38-85.68,1.73-6.58,4.64-10,11.53-11.74,32.38-8.28,64.59-17.18,96.85-25.91,3.21-.87,6.35-2,12.84-4.1-9.3-8.37-16.53-15.53-24.53-21.7-2.9-2.23-8-3.63-11.49-2.76-34.26,8.67-68.36,18-102.58,26.83-5.65,1.46-7.48,4.08-7.49,9.84-.07,36-.51,72-.78,108C196.74,449.08,197.06,451.52,197.23,454ZM451.8,353.25c-1.58,5.35-2.61,8.64-3.52,12-7.16,26.12-14.49,52.2-21.31,78.41-1.66,6.39-4.71,9.49-11.16,11-15.82,3.68-31.47,8.1-47.18,12.25-19.61,5.18-39.22,10.4-61.69,16.36,10,9.56,18.27,17.77,27,25.53,1.41,1.25,4.8,1.09,7,.52,34.8-9.13,69.6-18.29,104.25-28,2.77-.78,6.33-5.43,6.36-8.32C451.94,433.8,451.8,394.61,451.8,353.25Z"/><path d="M306.24,479.93a35.13,35.13,0,0,1-5.22-3.69c-15.61-15.45-31.3-30.82-46.48-46.68-2.23-2.33-3.31-7.46-2.51-10.7,5.08-20.69,10.57-41.29,16.63-61.71,1-3.36,5-7.26,8.37-8.25q30.68-9,61.77-16.41c3.39-.81,8.73.82,11.29,3.28,15.13,14.56,29.57,29.83,44.58,44.53,4,3.91,4.61,7.41,3.15,12.63-5.57,19.9-10.4,40-16.17,59.85-1,3.5-4.65,7.84-7.95,8.81-21,6.2-42.31,11.56-63.51,17.21C309.27,479,308.36,479.32,306.24,479.93Z"/><path d="M400.55,381.14c-26.75-26.77-52.17-51.74-76.92-77.35-6.21-6.43-11.65-7.49-19.92-5.13-26.28,7.48-52.8,14.15-79.23,21.11a9.25,9.25,0,0,1-7.31-.59L325.44,258c2.06,1.76,4.06,3.23,5.78,5,24.7,24.83,49.26,49.79,74.14,74.44,4.18,4.14,5.36,7.92,3.64,13.42C406.1,360.18,403.72,369.67,400.55,381.14Z"/><path d="M346.43,269.76c34.23,20.28,68.5,40.48,102.57,61,1.81,1.09,3.21,5.35,2.62,7.55q-14,52.65-28.79,105.07c-.79,2.79-3.78,6.13-6.46,7-9.95,3.23-20.2,5.53-32.17,8.65,1.16-5,1.93-8.82,2.94-12.59,8.57-32,17.05-64,25.88-95.91,1.62-5.87.84-9.78-3.71-14.23-19.59-19.16-38.74-38.79-58-58.26-2.18-2.21-4.24-4.55-6.36-6.83Z"/><path d="M265.77,352.05c-8.29,31.08-14.54,60.74-24.35,89.18-6.83,19.78-4.45,33.22,12,46.77,19.12,15.71,36,34.1,53.9,51.32l-2,2.52a37.64,37.64,0,0,1-4.3-1.9c-32.38-19.12-64.65-38.42-97.2-57.25-5.86-3.39-6.89-6.59-5.11-12.93,9.4-33.43,18.38-67,27.27-100.55,1.36-5.15,3.57-8.12,9.05-9.29C244.71,357.88,254.17,355.08,265.77,352.05Z"/><path d="M249,429.39c27,27,52.65,52.26,77.7,78.05,5.71,5.88,10.71,7,18.34,4.87,26-7.36,52.22-14.06,78.36-21,2.93-.78,5.91-1.35,9.6-.19L322.86,553.31c-8.51-9-16.89-18-25.57-26.86Q270.78,499.57,244,473c-3.86-3.8-5.2-7.19-3.47-12.56C243.59,450.82,245.89,440.92,249,429.39Z"/><path d="M197.23,454c-.17-2.44-.49-4.88-.47-7.32.27-36,.71-72,.78-108,0-5.76,1.84-8.38,7.49-9.84C239.25,320,273.35,310.64,307.61,302c3.45-.87,8.59.53,11.49,2.76,8,6.17,15.23,13.33,24.53,21.7-6.49,2.09-9.63,3.23-12.84,4.1-32.26,8.73-64.47,17.63-96.85,25.91-6.89,1.76-9.8,5.16-11.53,11.74-7.53,28.63-15.55,57.13-23.38,85.68Z"/><path d="M451.8,353.25c0,41.36.14,80.55-.29,119.73,0,2.89-3.59,7.54-6.36,8.32-34.65,9.68-69.45,18.84-104.25,28-2.19.57-5.58.73-7-.52-8.7-7.76-17-16-27-25.53,22.47-6,42.08-11.18,61.69-16.36,15.71-4.15,31.36-8.57,47.18-12.25,6.45-1.5,9.5-4.6,11.16-11,6.82-26.21,14.15-52.29,21.31-78.41C449.19,361.89,450.22,358.6,451.8,353.25Z"/><path d="M809.24,530.06a20.65,20.65,0,0,1-4.71-.94c-7.06-38.14-8-77.68-6.12-116.76.94-24.48,4.24-81.45-3.3-105.93-35.78-2.35-87.09,18.83-123.82,26.37-2.82.47-4.23,1.41-7.06.94-7.53-.47-15.06-6.59-14.59-14.6.47-5.18,4.23-8.47,8.47-11.3,60.73-39.07,208.56-51.31,280.6-45.19,15.53,1.41,34.36,7.06,32.48,26.36-.47,4.24-4.24,6.12-8,6.59-25,2.83-104.52,3.3-130.88,9.89,0,18.36.47,39.55-1.42,57.91-4.23,52.26,5.18,104,.94,156.3C827.6,526.76,817.71,530.53,809.24,530.06Z"/><path d="M1007,307.84a76.3,76.3,0,0,0-.47-10.35c-4.24,3.29-9.42,4.7-15.07,4.7-9.41,0-17.89-5.18-17.42-15.53l.47-2.83c7.54-50.37,123.35-56,162.43-62.14,8.47-1.41,44.72-9.89,48.49-9.89,6.59,0,8.47,7.06,7.53,11.77C1163.27,251.82,1081.35,254.64,1046,282c-11.77,31.54-16.47,71.09-16,104.52v4.23c32.48-10.83,91.8-55.08,120-55.08,7.53,0,14.59,4.24,14.59,12.24,0,32-133.7,61.2-140.29,87.1,3.29,28.25,1.88,64.5,40.49,64.5,19.77,0,86.62-23.07,97.45-39.08,1.88-2.35,0-15.07,0-18.36,0-8,2.82-13.18,11.77-12.71,7.06,6.59,13.18,15.53,13.18,25.42,0,45.67-91.8,83.33-129.94,83.33-60.73,0-65.91-71.09-65.91-116.28C991.43,383.17,1007,346.45,1007,307.84Z"/><path d="M1255.07,346.92c1.88,0,6.59,3.29,7.53,4.24,15.07,13.18,10.36,44.25,13.66,62.14,8.47-16.95,17.89-60.26,41.43-60.26,18.36,0,35.78,17.42,50.84,41,23.54,36.72,38.14,93.69,38.14,116.76,0,9.41-10.36,15.53-18.84,15.53-3.76,0-10.82-.47-12.71-3.76-9.88-17.42-15.53-45.2-23.54-71.56-5.18-17.42-16-46.61-27.3-50.38-22.6,6.59-44.26,68.74-36.25,111.11,3.29,19.3-2.36,35.78-11.3,35.78-9.89,0-17-9-22.6-23.07-16-41.9-16.48-128.53-16.48-152.54C1237.65,358.69,1239.53,346.92,1255.07,346.92Z"/><path d="M1440.56,517.35c4.71,0,31.08,20.71,35.78,20.71,23.07,0,54.14-31.07,54.14-54.14,0-66.38-97.45-24.95-97.45-90.86,0-46.14,57.44-70.15,96.51-70.15h19.78c3.29,6.59,8,12.24,8,19.77,0,18.83-73,5.65-90.86,43.32,4.23,11.29,33,16.47,43.31,21.18,29.19,13.65,63.09,41,63.09,75.33,0,49.9-54.15,89-101.22,89-24,0-46.61-12.24-46.61-38.61C1425,519.7,1428.79,517.35,1440.56,517.35Z"/><path d="M1610.52,267.35c11.77,0,23.07.48,23.07,15.54,0,11.77-3.77,15.54-15.07,15.54-8.47,0-23.54,0-23.54-11.77C1595,275.83,1598.28,267.35,1610.52,267.35Zm5.18,101.7c0-3.3,0-9.42,2.82-12.24a36,36,0,0,1,7.53-.95c40,0,38.14,89.93,38.61,116.29.47,11.77,1.41,23.54,1.41,34.84,0,8.94-6.12,19.77-15.53,19.77-7.54,0-13.66-5.18-17-10.83C1630.29,469.33,1615.7,412.83,1615.7,369.05Z"/><path d="M1733.86,346.92c1.88,0,6.59,3.29,7.53,4.24,15.07,13.18,10.36,44.25,13.65,62.14,8.48-16.95,17.9-60.26,41.44-60.26,18.36,0,35.78,17.42,50.84,41,23.54,36.72,38.14,93.69,38.14,116.76,0,9.41-10.36,15.53-18.84,15.53-3.76,0-10.83-.47-12.71-3.76-9.88-17.42-15.53-45.2-23.54-71.56-5.18-17.42-16-46.61-27.3-50.38-22.6,6.59-44.26,68.74-36.25,111.11,3.29,19.3-2.36,35.78-11.3,35.78-9.89,0-17-9-22.6-23.07-16-41.9-16.48-128.53-16.48-152.54C1716.44,358.69,1718.32,346.92,1733.86,346.92Z"/><path d="M1986.21,355.39c26.83,1.42,33.89,30.61,29.66,64.5a15.3,15.3,0,0,1,6.59-1.88c8.47.47,15.06,16,17.42,26.83,8.94,16.48,32.48,56,75.32,41-12.71,30.6-25.89,37.2-37.19,36.26-13.65.47-37.66-17.9-45.67-26.84l-12.24-13.65c-6.59-2.36-37.66,49.9-64.5,49.9-28.72,0-48.49-32.48-48.49-81.92C1907.11,401.06,1955.13,353,1986.21,355.39Zm-33,140.3a9.18,9.18,0,0,0,3.29.47c18.37-2.35,48.5-47.55,49.44-74.38.94-16-9.89-29.66-20.72-33.9-26.83-.94-44.72,43.31-46.13,74.38C1938.65,473.56,1942.89,490,1953.25,495.69Z"/></g></svg>